<svg class="icon" viewBox="0 0 1025 1024" xmlns="http://www.w3.org/2000/svg" width="200.195" height="200"><defs><style/></defs><path d="M580.284 716.8c-39.015 0-68.267-28.058-68.267-68.267v-68.266c0-40.226 29.252-68.267 68.267-68.267h443.733v204.8H580.284zm68.266-170.667c-29.252 0-68.266 38.093-68.266 68.267 0 30.157 39.014 68.267 68.266 68.267 29.253 0 68.267-38.11 68.267-68.267 0-30.174-39.014-68.267-68.267-68.267zm-170.666 34.134v68.266c0 60.314 43.895 102.4 102.4 102.4H955.75v136.534c0 60.313-43.895 102.4-102.4 102.4H102.417c-58.504 0-102.4-42.087-102.4-102.4L0 216.167C0 155.835 43.913 102.4 102.417 102.4h307.2l-68.267 68.267H102.417c-29.252 0-67.089 1.655-67.089 31.812 0 30.174 3.703 36.454 32.956 36.454H955.75v238.934H580.284c-58.505 0-102.4 42.069-102.4 102.4zM375.484 204.8L697.429 34.116 750.95 204.8H375.484zm409.6-102.4h68.266c30.908 0 48.896 46.49 68.267 68.267H785.084V102.4z"/></svg>