<svg class="icon" viewBox="0 0 1024 1024" xmlns="http://www.w3.org/2000/svg" width="200" height="200"><defs><style/></defs><path d="M917.79 212.35H93.652c-41.623 0-74.921 33.3-74.921 74.922s33.298 74.922 74.921 74.922h12.487v511.963c0 83.246 66.597 149.843 149.843 149.843h220.602V212.35h70.76V1024h220.601c83.246 0 149.843-66.597 149.843-149.843V362.194h12.487c41.623 0 74.922-33.299 74.922-74.922s-45.786-74.921-87.409-74.921zm-378.77-41.622S784.596-4.09 834.543.073c49.948 4.163 33.299 170.655 33.299 170.655H539.02zm-62.435 0S231.01-4.09 181.062.073c-49.948 4.163-33.299 170.655-33.299 170.655h328.822z"/></svg>