<svg class="icon" viewBox="0 0 1280 1024" xmlns="http://www.w3.org/2000/svg" width="250" height="200"><defs><style/></defs><path d="M.001 64c0-35.328 29.12-64 63.488-64h1153.024c35.072 0 63.488 28.48 63.488 64v896c0 35.328-29.12 64-63.488 64H63.49A63.616 63.616 0 0 1 .001 960V64zm0 128v64h1280v-64H.001zM284.61 497.664a32 32 0 1 0-57.216 28.672l128 256a32 32 0 0 0 57.216 0l128-256a32 32 0 1 0-57.216-28.672l-99.392 198.784-99.392-198.784zM608.001 512v256a32 32 0 0 0 64 0V512a32 32 0 0 0-64 0zm256 160h96c13.184-.32 29.568-3.392 46.592-12.16 30.272-15.488 49.408-43.968 49.408-83.84s-19.2-68.352-49.408-83.84a107.776 107.776 0 0 0-45.76-12.16H832.001a32 32 0 0 0-32 32v256a32 32 0 0 0 64 0v-96zm95.168-64h-95.168v-64h96a48.448 48.448 0 0 1 17.408 5.12c9.728 4.992 14.592 12.16 14.592 26.88 0 14.72-4.864 21.888-14.592 26.88a47.808 47.808 0 0 1-18.24 5.12z"/></svg>