<?xml version="1.0" standalone="no"?><!DOCTYPE svg PUBLIC "-//W3C//DTD SVG 1.1//EN" "http://www.w3.org/Graphics/SVG/1.1/DTD/svg11.dtd"><svg t="1556154716769" class="icon" style="" viewBox="0 0 1024 1024" version="1.1" xmlns="http://www.w3.org/2000/svg" p-id="4047" xmlns:xlink="http://www.w3.org/1999/xlink" width="200" height="200"><defs><style type="text/css"></style></defs><path d="M549.1 133.1l-226 145.1H210.3c-62.7 0-113.5 50.2-113.5 113v226.5c0 62.4 50.2 113 113.5 113h112.8l226.1 145.1c32 13.9 56.7-1 56.7-32.4V165.5c0-31.5-25.4-46-56.8-32.4zM693.5 315.5c-10.6-11.4-28.6-12-39.9-1.4-11.4 10.7-12 28.6-1.4 40 5.3 5.7 14.3 18.2 23.5 37 15.8 32.2 25.4 70.1 25.4 113.3s-9.6 81.1-25.4 113.3c-9.3 18.9-18.3 31.4-23.5 37-10.7 11.4-10.1 29.3 1.4 40 11.4 10.7 29.3 10.1 40-1.4 8.9-9.5 21.1-26.5 33-50.7 19.5-39.7 31.2-86 31.2-138.3 0-52.3-11.7-98.6-31.2-138.3-12-24-24.2-41-33.1-50.5z" p-id="4048"></path><path d="M866.9 280.5c-22.8-38.7-45.9-65.5-62.1-79.9-11.7-10.4-29.5-9.4-39.9 2.3-10.4 11.7-9.4 29.5 2.3 39.9 2.7 2.4 8 7.7 15.1 16 12.2 14.1 24.4 31 35.9 50.5 32.9 55.8 52.6 121 52.6 195.2S851.1 644 818.2 699.8c-11.5 19.5-23.8 36.3-35.9 50.5-7.1 8.3-12.4 13.6-15.1 15.9-11.7 10.4-12.7 28.3-2.3 39.9 10.3 11.7 28.3 12.7 39.9 2.3 16.2-14.4 39.2-41.2 62.1-79.9 37.8-64.1 60.5-139 60.5-224s-22.7-159.9-60.5-224z" p-id="4049"></path></svg>