<svg class="icon" viewBox="0 0 1024 1024" xmlns="http://www.w3.org/2000/svg" width="200" height="200"><defs><style/></defs><path d="M512.673 0c12.756 10.386 24.283 21.767 39.263 30.31 82.71 47.104 244.882 68.755 369.664 57.461 0 130.282-2.4 328.587-2.4 458.87 0 53.247 8.837 140.053-7.43 179.785-35.577 86.981-130.81 155.706-204.859 206.965-41.282 28.584-84.436 52.955-134.817 73.172-16.179 6.495-42.393 20.772-65.8 16.706-110.533-19.164-270.628-136.31-330.107-209.043-24.342-29.754-54.185-57.08-66.882-98.245-12.405-40.17-4.243-129.668-4.243-179.785 0-126.83-2.662-321.624-2.662-448.425C236.895 100.821 456.47 74.371 512.673 0zM160.914 146.286c.351 156.438-.35 399.447 0 555.885 21.27 66.15 136.397 134.496 191.459 172.676 34.933 24.225 70.627 45.875 112.523 63.78 11.937 5.091 34.494 20.54 52.02 16.706 88.853-19.368 228.41-120.949 278.088-181.862 19.164-23.493 59.919-37.77 68.082-71.3V146.286c-135.929 1.697-263.315-17.262-350.413-61.616-67.262 49.796-231.57 61.528-351.759 61.616zm581.018 161.002c26.448 4.886 46.958 29.462 27.619 55.413-73.231 71.768-146.49 143.565-219.722 215.332-13.926 13.693-54.213 66.853-81.744 60.621-20.041-4.535-33.88-26.068-46.694-38.678-33.266-32.417-66.531-64.804-99.796-97.221-10.709-10.533-29.492-31.042-15.916-52.254 8.28-12.96 31.685-21.562 48.83-10.444l119.954 118.11c82.769-81.539 165.596-163.079 248.364-244.589 6.378-2.106 12.756-4.184 19.105-6.29z"/></svg>