<svg class="icon" viewBox="0 0 1024 1024" xmlns="http://www.w3.org/2000/svg" width="200" height="200"><defs><style/></defs><path d="M870.4 23.273H384c-84.852 0-151.273 71.075-151.273 155.927v612.073h-46.545v-512H153.6C68.77 279.273 0 350.348 0 435.2v409.6c0 84.852 68.77 155.927 153.6 155.927h716.8c84.852 0 153.6-71.075 153.6-155.927V179.2c0-84.852-68.77-155.927-153.6-155.927zM581.818 439.855a25.6 25.6 0 0 1-25.6 25.6H444.51a25.6 25.6 0 0 1-25.6-25.6v-111.71a25.6 25.6 0 0 1 25.6-25.6h111.71a25.6 25.6 0 0 1 25.6 25.6v111.71zm279.273 186.181a25.6 25.6 0 0 1-25.6 25.6H444.509a25.6 25.6 0 0 1-25.6-25.6v-18.618a25.6 25.6 0 0 1 25.6-25.6h390.982a25.6 25.6 0 0 1 25.6 25.6v18.618zm-23.273-186.181a25.6 25.6 0 0 1-25.6 25.6H653.964a25.6 25.6 0 0 1-25.6-25.6v-18.619a25.6 25.6 0 0 1 25.6-25.6h158.254a25.6 25.6 0 0 1 25.6 25.6v18.619z"/></svg>