<svg class="icon" viewBox="0 0 1024 1024" xmlns="http://www.w3.org/2000/svg" width="200" height="200"><defs><style/></defs><path d="M870.4 102.4H656.384a153.6 153.6 0 0 0-288.768 0H153.6A102.4 102.4 0 0 0 51.2 204.8v716.8A102.4 102.4 0 0 0 153.6 1024h716.8a102.4 102.4 0 0 0 102.4-102.4V204.8a102.4 102.4 0 0 0-102.4-102.4zm-358.4 0a51.2 51.2 0 1 1-51.2 51.2 51.2 51.2 0 0 1 51.2-51.2zm68.096 768H239.104c-18.944 0-34.304-23.04-34.304-51.2s15.36-51.2 34.304-51.2h341.504c18.944 0 34.304 23.04 34.304 51.2s-15.872 51.2-34.816 51.2zM768 665.6H256a51.2 51.2 0 0 1 0-102.4h512a51.2 51.2 0 0 1 0 102.4z"/></svg>