<svg class="icon" viewBox="0 0 1024 1024" xmlns="http://www.w3.org/2000/svg" width="200" height="200"><defs><style/></defs><path d="M892.162 42.742H131.838c-70.434 0-128.226 57.19-128.226 128.226v682.666c0 70.434 57.19 128.226 128.226 128.226h760.324c70.434 0 128.226-57.19 128.226-128.226V170.366c0-70.434-57.19-127.624-128.226-127.624zM706.145 267.287c69.23 0 125.817 56.588 125.817 125.818s-56.588 125.818-125.817 125.818-125.818-56.588-125.818-125.818 56.588-125.818 125.818-125.818zM386.483 707.35H196.252c-17.458 0-31.906-14.448-31.906-31.906s14.448-31.906 31.906-31.906h189.63c17.457 0 31.905 14.448 31.905 31.906s-13.846 31.906-31.304 31.906zm0-180.6H196.252c-17.458 0-31.906-14.448-31.906-31.906s14.448-31.906 31.906-31.906h189.63c17.457 0 31.905 14.448 31.905 31.906s-13.846 31.906-31.304 31.906zm0-169.764H196.252c-17.458 0-31.906-14.448-31.906-31.906s14.448-31.906 31.906-31.906h189.63c17.457 0 31.905 14.448 31.905 31.906s-13.846 31.906-31.304 31.906zM706.145 719.39c-133.042 0-192.038-30.1-192.038-41.538 0-16.856 4.816-35.518 12.642-53.578 29.498-70.434 98.126-108.962 168.56-101.136 4.214.602 7.826.602 12.04.602 3.01 0 6.622 0 9.632-.602 71.035-6.02 140.265 31.906 169.161 102.942 7.224 18.06 12.04 36.12 12.04 52.374.602 11.438-58.996 40.936-192.037 40.936z"/></svg>